<svg width="1440" height="161" viewBox="0 0 1440 161" fill="none" xmlns="http://www.w3.org/2000/svg">
<path d="M1440 0H0V60C0 115.228 44.7715 160 100 160H1440V0Z" fill="#5964E0"/>
<mask id="mask0_0_4303" style="mask-type:alpha" maskUnits="userSpaceOnUse" x="0" y="0" width="1440" height="160">
<path d="M1440 0H0V60C0 115.228 44.7715 160 100 160H1440V0Z" fill="white"/>
</mask>
<g mask="url(#mask0_0_4303)">
<path opacity="0.0813802" fill-rule="evenodd" clip-rule="evenodd" d="M1163.89 -205.424C1185.01 -229.387 1224.21 -221.054 1233.77 -190.571L1347.88 173.592C1357.27 203.528 1330.92 232.479 1300.24 225.956L933.748 148.057C903.063 141.535 890.772 104.372 911.518 80.8396L1163.89 -205.424Z" fill="white"/>
<path opacity="0.0813802" fill-rule="evenodd" clip-rule="evenodd" d="M254.539 -323.259C251.422 -355.051 284.25 -378.038 313.059 -364.235L657.22 -199.336C685.511 -185.781 688.718 -146.77 663.02 -128.776L356.104 86.1288C330.406 104.123 294.845 87.7662 291.783 56.5449L254.539 -323.259Z" fill="white"/>
<path opacity="0.0813802" fill-rule="evenodd" clip-rule="evenodd" d="M-71.4609 71.7414C-74.5785 39.9489 -41.7496 16.9619 -12.9407 30.7652L331.22 195.664C359.511 209.219 362.718 248.23 337.02 266.224L30.1041 481.129C4.4064 499.123 -31.1552 482.766 -34.2168 451.545L-71.4609 71.7414Z" fill="white"/>
</g>
</svg>
