<svg width="140" height="140" viewBox="0 0 140 140" fill="none" xmlns="http://www.w3.org/2000/svg">
<path d="M0 0H140V140H6C2.6863 140 0 137.314 0 134V0Z" fill="#E99210"/>
<path fill-rule="evenodd" clip-rule="evenodd" d="M110.417 77.6835V81.549H103.61C102.875 81.549 102.276 81.3128 101.811 80.8403C101.346 80.3679 101.114 79.7666 101.114 79.0364V69.437H96.3493V65.5714H101.114V59H105.198V65.5714H111V69.437H105.198V76.7171C105.198 77.3613 105.49 77.6835 106.073 77.6835H110.417ZM37.3902 82C39.5078 82 41.1501 81.5275 42.3169 80.5826C43.4838 79.6377 44.0672 78.3707 44.0672 76.7815V76.5882C44.0672 75.1494 43.5486 74.0273 42.5114 73.222C41.4742 72.4167 40.1345 71.9281 38.4922 71.7563C37.066 71.606 36.0828 71.4181 35.5426 71.1926C35.0024 70.9671 34.7323 70.5966 34.7323 70.0812C34.7323 69.7162 34.9052 69.4101 35.2509 69.1632C35.5966 68.9162 36.1152 68.7927 36.8067 68.7927C37.563 68.7927 38.1789 68.9592 38.6543 69.292C39.1297 69.6249 39.4646 70.0812 39.6591 70.6611L43.3541 69.1793C43.1813 68.7283 42.9328 68.2612 42.6086 67.778C42.2845 67.2948 41.8631 66.8546 41.3445 66.4573C40.8259 66.06 40.1939 65.7379 39.4484 65.4909C38.7029 65.2439 37.8223 65.1204 36.8067 65.1204C36.0288 65.1204 35.2725 65.2278 34.5378 65.4426C33.8031 65.6573 33.1549 65.9741 32.593 66.3929C32.0312 66.8116 31.5774 67.3217 31.2317 67.923C30.886 68.5243 30.7131 69.2222 30.7131 70.0168V70.2101C30.7131 71.7348 31.2479 72.8891 32.3175 73.673C33.3872 74.4568 34.8295 74.9239 36.6447 75.0742C37.3145 75.1387 37.8709 75.2246 38.3139 75.3319C38.7569 75.4393 39.108 75.5735 39.3673 75.7346C39.6267 75.8957 39.8049 76.0675 39.9022 76.25C39.9994 76.4325 40.048 76.6312 40.048 76.8459C40.048 77.211 39.8589 77.5493 39.4808 77.8606C39.1026 78.172 38.4058 78.3277 37.3902 78.3277C36.2449 78.3277 35.3968 78.07 34.8457 77.5546C34.2947 77.0392 33.9328 76.4379 33.7599 75.7507L30 76.9748C30.108 77.5331 30.3187 78.1076 30.6321 78.6982C30.9454 79.2887 31.3938 79.8256 31.9772 80.3088C32.5606 80.792 33.2953 81.1947 34.1813 81.5168C35.0672 81.8389 36.1369 82 37.3902 82ZM53.9937 82C56.2842 82 58.1155 81.4202 59.4877 80.2605C60.8598 79.1008 61.7296 77.5761 62.0969 75.6863L58.0777 74.6877C57.8833 75.74 57.4565 76.5775 56.7974 77.2003C56.1384 77.8231 55.1822 78.1345 53.9289 78.1345C53.3454 78.1345 52.7944 78.0432 52.2758 77.8606C51.7572 77.6781 51.3034 77.4043 50.9145 77.0392C50.5255 76.6741 50.2176 76.2178 49.9907 75.6702C49.7638 75.1225 49.6504 74.4944 49.6504 73.7857V73.5924C49.6504 72.8838 49.7638 72.2449 49.9907 71.6758C50.2176 71.1067 50.5255 70.6235 50.9145 70.2262C51.3034 69.8289 51.7572 69.5229 52.2758 69.3081C52.7944 69.0934 53.3454 68.986 53.9289 68.986C55.1822 68.986 56.1546 69.3296 56.846 70.0168C57.5375 70.704 57.9481 71.5201 58.0777 72.465L62.0969 71.4342C61.7296 69.5444 60.849 68.0196 59.4553 66.8599C58.0615 65.7003 56.241 65.1204 53.9937 65.1204C52.8268 65.1204 51.7302 65.3137 50.7038 65.7003C49.6774 66.0868 48.7806 66.6452 48.0135 67.3753C47.2464 68.1055 46.6468 68.986 46.2146 70.0168C45.7824 71.0476 45.5663 72.2073 45.5663 73.4958V73.8824C45.5663 75.1709 45.7824 76.3198 46.2146 77.3291C46.6468 78.3385 47.241 79.1867 47.9973 79.8739C48.7536 80.5612 49.645 81.0873 50.6714 81.4524C51.6978 81.8175 52.8052 82 53.9937 82ZM73.7575 81.4524C72.7527 81.8175 71.6993 82 70.5972 82C69.4952 82 68.4418 81.8175 67.437 81.4524C66.4322 81.0873 65.5408 80.5558 64.7629 79.8578C63.985 79.1599 63.3691 78.3009 62.9154 77.2808C62.4616 76.2607 62.2347 75.085 62.2347 73.7535V73.3669C62.2347 72.057 62.4616 70.8919 62.9154 69.8718C63.3691 68.8518 63.985 67.9874 64.7629 67.2787C65.5408 66.57 66.4322 66.0331 67.437 65.6681C68.4418 65.303 69.4952 65.1204 70.5972 65.1204C71.6993 65.1204 72.7527 65.303 73.7575 65.6681C74.7623 66.0331 75.6537 66.57 76.4316 67.2787C77.2095 67.9874 77.8253 68.8518 78.2791 69.8718C78.7329 70.8919 78.9598 72.057 78.9598 73.3669V73.7535C78.9598 75.085 78.7329 76.2607 78.2791 77.2808C77.8253 78.3009 77.2095 79.1599 76.4316 79.8578C75.6537 80.5558 74.7623 81.0873 73.7575 81.4524ZM70.5972 78.1345C70.0138 78.1345 69.4628 78.0378 68.9442 77.8445C68.4256 77.6513 67.9718 77.3721 67.5828 77.007C67.1939 76.6419 66.886 76.1963 66.6591 75.6702C66.4322 75.144 66.3187 74.5481 66.3187 73.8824V73.2381C66.3187 72.5724 66.4322 71.9764 66.6591 71.4503C66.886 70.9241 67.1939 70.4785 67.5828 70.1134C67.9718 69.7484 68.4256 69.4692 68.9442 69.2759C69.4628 69.0826 70.0138 68.986 70.5972 68.986C71.1807 68.986 71.7317 69.0826 72.2503 69.2759C72.7689 69.4692 73.2227 69.7484 73.6116 70.1134C74.0006 70.4785 74.3085 70.9241 74.5354 71.4503C74.7623 71.9764 74.8757 72.5724 74.8757 73.2381V73.8824C74.8757 74.5481 74.7623 75.144 74.5354 75.6702C74.3085 76.1963 74.0006 76.6419 73.6116 77.007C73.2227 77.3721 72.7689 77.6513 72.2503 77.8445C71.7317 78.0378 71.1807 78.1345 70.5972 78.1345ZM90.5555 81.4524C89.5507 81.8175 88.4973 82 87.3953 82C86.2932 82 85.2398 81.8175 84.235 81.4524C83.2302 81.0873 82.3388 80.5558 81.5609 79.8578C80.783 79.1599 80.1672 78.3009 79.7134 77.2808C79.2596 76.2607 79.0327 75.085 79.0327 73.7535V73.3669C79.0327 72.057 79.2596 70.8919 79.7134 69.8718C80.1672 68.8518 80.783 67.9874 81.5609 67.2787C82.3388 66.57 83.2302 66.0331 84.235 65.6681C85.2398 65.303 86.2932 65.1204 87.3953 65.1204C88.4973 65.1204 89.5507 65.303 90.5555 65.6681C91.5603 66.0331 92.4517 66.57 93.2296 67.2787C94.0075 67.9874 94.6234 68.8518 95.0771 69.8718C95.5309 70.8919 95.7578 72.057 95.7578 73.3669V73.7535C95.7578 75.085 95.5309 76.2607 95.0771 77.2808C94.6234 78.3009 94.0075 79.1599 93.2296 79.8578C92.4517 80.5558 91.5603 81.0873 90.5555 81.4524ZM87.3953 78.1345C86.8118 78.1345 86.2608 78.0378 85.7422 77.8445C85.2236 77.6513 84.7698 77.3721 84.3809 77.007C83.9919 76.6419 83.684 76.1963 83.4571 75.6702C83.2302 75.144 83.1167 74.5481 83.1167 73.8824V73.2381C83.1167 72.5724 83.2302 71.9764 83.4571 71.4503C83.684 70.9241 83.9919 70.4785 84.3809 70.1134C84.7698 69.7484 85.2236 69.4692 85.7422 69.2759C86.2608 69.0826 86.8118 68.986 87.3953 68.986C87.9787 68.986 88.5297 69.0826 89.0483 69.2759C89.5669 69.4692 90.0207 69.7484 90.4097 70.1134C90.7986 70.4785 91.1065 70.9241 91.3334 71.4503C91.5603 71.9764 91.6738 72.5724 91.6738 73.2381V73.8824C91.6738 74.5481 91.5603 75.144 91.3334 75.6702C91.1065 76.1963 90.7986 76.6419 90.4097 77.007C90.0207 77.3721 89.5669 77.6513 89.0483 77.8445C88.5297 78.0378 87.9787 78.1345 87.3953 78.1345Z" fill="white"/>
</svg>
